<svg width="1084" height="950" viewBox="0 0 1084 950" fill="none" xmlns="http://www.w3.org/2000/svg">
<g opacity="0.08">
<path d="M1083 0H0V949.998H1083V0Z" fill="#323232"/>
<path opacity="0.5" d="M1083 0H0V949.998H1083V0Z" fill="url(#paint0_linear)"/>
<path opacity="0.5" d="M1083 0H0V949.998H1083V0Z" fill="url(#paint1_linear)"/>
<path d="M1083 0V334.019C1030.58 381.329 962.281 402.609 897.445 408.499C803.441 417.049 707.271 402.039 616.01 432.819C501.934 471.389 406.63 579.879 341.65 709.269C300.641 791.159 268.295 884.829 214.001 949.998H0V0H1083Z" fill="#323232"/>
<path opacity="0.5" d="M1083 0V334.019C1030.58 381.329 962.281 402.609 897.445 408.499C803.441 417.049 707.271 402.039 616.01 432.819C501.934 471.389 406.63 579.879 341.65 709.269C300.641 791.159 268.295 884.829 214.001 949.998H0V0H1083Z" fill="url(#paint2_linear)"/>
<path opacity="0.5" d="M1083 0V334.019C1030.58 381.329 962.281 402.609 897.445 408.499C803.441 417.049 707.271 402.039 616.01 432.819C501.934 471.389 406.63 579.879 341.65 709.269C300.641 791.159 268.295 884.829 214.001 949.998H0V0H1083Z" fill="url(#paint3_linear)"/>
<path d="M1083 328.7V334.02C1030.58 381.33 962.28 402.61 897.445 408.5C803.44 417.05 707.27 402.04 616.009 432.82C501.933 471.39 406.63 579.88 341.65 709.27C300.64 791.16 268.294 884.829 214 949.999H209.235C265.551 884.639 298.33 788.88 340.206 705.47C405.041 576.08 500.345 467.59 614.565 429.02C705.826 398.05 801.996 413.25 896.001 404.7C961.414 398.62 1030.44 376.96 1083 328.7Z" fill="url(#paint4_linear)"/>
<path d="M1083.01 541.881V950H384.543C387.72 881.6 397.395 810.54 431.04 758.48C438.837 746.32 447.501 735.87 457.032 726.94C458.043 725.99 459.053 725.04 460.064 724.09C508.005 680.2 573.707 671.08 633.488 677.92C639.698 678.68 646.051 679.44 652.26 680.39C655.004 680.77 657.603 681.15 660.347 681.72C724.316 692.17 788.141 711.93 852.11 703.76C854.853 703.38 857.453 703 860.196 702.62C862.795 702.24 865.395 701.67 867.994 701.1C950.446 684.57 1025.53 622.251 1083.01 541.881Z" fill="#323232"/>
<path opacity="0.5" d="M1083.01 541.881V950H384.543C387.72 881.6 397.395 810.54 431.04 758.48C438.837 746.32 447.501 735.87 457.032 726.94C458.043 725.99 459.053 725.04 460.064 724.09C508.005 680.2 573.707 671.08 633.488 677.92C639.698 678.68 646.051 679.44 652.26 680.39C655.004 680.77 657.603 681.15 660.347 681.72C724.316 692.17 788.141 711.93 852.11 703.76C854.853 703.38 857.453 703 860.196 702.62C862.795 702.24 865.395 701.67 867.994 701.1C950.446 684.57 1025.53 622.251 1083.01 541.881Z" fill="url(#paint5_linear)"/>
<path d="M1083 541.881V544.921C1027.26 622.821 954.918 683.431 875.354 702.051C872.899 702.621 870.444 703.191 867.99 703.571C862.791 704.711 857.449 705.471 852.25 706.231C785.537 714.781 719.113 692.931 652.401 682.861C649.946 682.481 647.347 682.101 644.892 681.721C641.138 681.151 637.383 680.771 633.629 680.201C575.147 673.551 510.889 682.101 463.381 723.521C462.226 724.471 461.215 725.421 460.204 726.371C449.519 736.061 439.844 747.461 431.18 760.951C398.113 812.251 388.149 882.17 384.828 949.81H384.395C387.571 881.41 397.246 810.351 430.891 758.291C438.689 746.131 447.353 735.681 456.883 726.751C457.894 725.801 458.905 724.851 459.916 723.901C507.856 680.011 573.558 670.891 633.34 677.731C639.549 678.491 645.903 679.251 652.112 680.201C654.856 680.581 657.455 680.961 660.198 681.531C724.167 691.981 787.992 711.741 851.961 703.571C854.705 703.191 857.304 702.811 860.048 702.431C862.647 702.051 865.246 701.481 867.845 700.911C950.442 684.571 1025.53 622.251 1083 541.881Z" fill="#323232"/>
<path d="M1083 648.658V949.998H486.918C490.095 881.598 499.77 810.538 533.415 758.478C538.18 751.068 543.234 744.228 548.721 737.958C549.299 737.198 550.021 736.438 550.598 735.868C576.879 706.608 609.947 689.698 645.036 681.718C647.491 681.148 649.801 680.578 652.256 680.198C679.836 674.878 708.572 674.498 735.863 677.728C779.905 682.668 823.947 694.448 867.845 700.908C870.3 701.288 872.899 701.668 875.354 702.048C901.634 705.658 928.06 706.988 954.485 703.568C978.888 700.528 1002.57 693.308 1025.53 682.858C1026.97 682.098 1028.42 681.528 1029.86 680.768C1048.2 672.218 1065.96 661.198 1083 648.658Z" fill="#323232"/>
<path opacity="0.5" d="M1083 648.658V949.998H486.918C490.095 881.598 499.77 810.538 533.415 758.478C538.18 751.068 543.234 744.228 548.721 737.958C549.299 737.198 550.021 736.438 550.598 735.868C576.879 706.608 609.947 689.698 645.036 681.718C647.491 681.148 649.801 680.578 652.256 680.198C679.836 674.878 708.572 674.498 735.863 677.728C779.905 682.668 823.947 694.448 867.845 700.908C870.3 701.288 872.899 701.668 875.354 702.048C901.634 705.658 928.06 706.988 954.485 703.568C978.888 700.528 1002.57 693.308 1025.53 682.858C1026.97 682.098 1028.42 681.528 1029.86 680.768C1048.2 672.218 1065.96 661.198 1083 648.658Z" fill="url(#paint6_linear)"/>
<path d="M1083 648.658V651.508C1064.52 665.188 1045.31 676.778 1025.39 685.708C1023.94 686.278 1022.5 687.038 1021.2 687.608C999.682 696.918 977.589 703.378 954.918 706.228C926.038 709.838 897.158 707.938 868.278 703.568C865.679 703.188 862.935 702.808 860.192 702.428C818.893 695.778 777.739 685.138 736.297 680.388C711.46 677.538 685.612 677.538 660.342 681.528C657.743 681.908 655.144 682.478 652.545 682.858C615.578 690.078 580.489 706.608 552.764 736.628C552.187 737.388 551.465 737.958 550.887 738.718C544.822 745.558 539.046 752.968 533.848 761.138C500.781 812.438 490.817 882.358 487.496 949.998H487.062C490.239 881.598 499.914 810.538 533.559 758.478C538.324 751.068 543.378 744.228 548.866 737.958C549.443 737.198 550.165 736.438 550.743 735.868C577.024 706.608 610.091 689.698 645.18 681.718C647.635 681.148 649.946 680.578 652.4 680.198C679.981 674.878 708.716 674.498 736.008 677.728C780.05 682.668 824.092 694.448 867.989 700.908C870.444 701.288 873.043 701.668 875.498 702.048C901.779 705.658 928.204 706.988 954.629 703.568C979.033 700.528 1002.71 693.308 1025.67 682.858C1027.12 682.098 1028.56 681.528 1030.01 680.768C1048.2 672.218 1065.96 661.198 1083 648.658Z" fill="#323232"/>
<path d="M1083 616.928V949.998H280.277C291.252 885.398 309.157 820.418 346.846 777.288C378.036 741.568 418.179 726.178 459.911 723.898C461.066 723.898 462.221 723.708 463.376 723.708C492.401 722.568 522.292 727.508 550.45 735.868C551.172 736.058 551.894 736.248 552.616 736.438C553.915 736.818 555.07 737.198 556.226 737.578C627.559 760.188 696.149 801.228 769.36 806.548C860.332 813.198 950.004 762.848 1021.05 687.608C1021.48 687.228 1021.92 686.658 1022.2 686.278C1023.21 685.138 1024.37 683.998 1025.38 682.858C1045.02 661.768 1063.79 638.778 1083 616.928Z" fill="#323232"/>
<path opacity="0.5" d="M1083 616.928V949.998H280.277C291.252 885.398 309.157 820.418 346.846 777.288C378.036 741.568 418.179 726.178 459.911 723.898C461.066 723.898 462.221 723.708 463.376 723.708C492.401 722.568 522.292 727.508 550.45 735.868C551.172 736.058 551.894 736.248 552.616 736.438C553.915 736.818 555.07 737.198 556.226 737.578C627.559 760.188 696.149 801.228 769.36 806.548C860.332 813.198 950.004 762.848 1021.05 687.608C1021.48 687.228 1021.92 686.658 1022.2 686.278C1023.21 685.138 1024.37 683.998 1025.38 682.858C1045.02 661.768 1063.79 638.778 1083 616.928Z" fill="url(#paint7_linear)"/>
<path d="M1083 616.928V619.588C1065.09 639.728 1047.76 661.198 1029.86 680.958C1028.41 682.668 1026.97 684.188 1025.38 685.898C1024.37 687.038 1023.36 688.178 1022.35 689.128C951.159 765.128 861.054 816.048 769.504 809.398C696.293 804.078 627.703 763.228 556.37 740.428C554.493 739.858 552.615 739.288 550.738 738.718C550.016 738.528 549.294 738.338 548.572 738.148C519.837 729.788 489.513 725.038 460.055 726.748C458.9 726.748 457.889 726.938 456.734 726.938C416.158 729.978 377.314 745.178 346.846 780.138C309.735 822.698 291.829 886.348 280.711 949.998H280.277C291.252 885.398 309.157 820.418 346.846 777.288C378.036 741.568 418.179 726.178 459.911 723.898C461.066 723.898 462.221 723.708 463.376 723.708C492.401 722.568 522.292 727.508 550.45 735.868C551.172 736.058 551.894 736.248 552.616 736.438C553.915 736.818 555.07 737.198 556.226 737.578C627.559 760.188 696.149 801.228 769.36 806.548C860.332 813.198 950.004 762.848 1021.05 687.608C1021.48 687.228 1021.92 686.658 1022.2 686.278C1023.21 685.138 1024.37 683.998 1025.38 682.858C1045.02 661.768 1063.79 638.778 1083 616.928Z" fill="url(#paint8_linear)"/>
<path d="M1083 0V126.16C1077.8 153.14 1070 179.17 1058.88 203.11C1009.64 308.939 907.842 349.789 813.838 358.149C719.833 366.509 623.663 351.309 532.402 382.089C418.326 420.469 322.878 528.769 257.898 658.159C210.968 751.449 175.446 860.129 105.845 924.158C94.8707 934.228 83.1743 942.778 71.0447 949.808H0V0H1083Z" fill="#323232"/>
<path opacity="0.5" d="M1083 0V126.16C1077.8 153.14 1070 179.17 1058.88 203.11C1009.64 308.939 907.842 349.789 813.838 358.149C719.833 366.509 623.663 351.309 532.402 382.089C418.326 420.469 322.878 528.769 257.898 658.159C210.968 751.449 175.446 860.129 105.845 924.158C94.8707 934.228 83.1743 942.778 71.0447 949.808H0V0H1083Z" fill="url(#paint9_linear)"/>
<path opacity="0.5" d="M1083 0V126.16C1077.8 153.14 1070 179.17 1058.88 203.11C1009.64 308.939 907.842 349.789 813.838 358.149C719.833 366.509 623.663 351.309 532.402 382.089C418.326 420.469 322.878 528.769 257.898 658.159C210.968 751.449 175.446 860.129 105.845 924.158C94.8707 934.228 83.1743 942.778 71.0447 949.808H0V0H1083Z" fill="url(#paint10_linear)"/>
<path d="M1083 120.46V126.35C1077.8 153.33 1070 179.36 1058.88 203.3C1009.64 309.129 907.842 349.979 813.838 358.339C719.834 366.699 623.663 351.499 532.403 382.279C418.327 420.659 322.878 528.959 257.898 658.349C210.968 751.639 175.446 860.318 105.845 924.348C94.871 934.418 83.1746 942.968 71.045 949.998H60.3594C76.3878 942.018 91.6942 931.568 105.99 918.648C175.59 854.429 211.257 745.939 258.043 652.649C323.023 523.259 418.471 415.149 532.547 376.579C623.808 345.799 719.978 360.999 813.982 352.639C907.987 344.279 1009.79 303.239 1059.03 197.6C1070 173.47 1077.8 147.44 1083 120.46Z" fill="url(#paint11_linear)"/>
<path d="M896.29 0C895.568 2.66 894.846 5.31999 893.98 7.97999C858.602 122.93 763.298 185.25 671.604 213.94C579.91 242.63 483.162 248.33 396.955 298.49C289.233 360.999 208.513 488.489 160.573 630.039C125.917 732.259 104.401 847.019 43.7532 925.298C36.822 934.228 29.4576 942.588 21.66 949.998H0V0H896.29Z" fill="#323232"/>
<path opacity="0.5" d="M896.29 0C895.568 2.66 894.846 5.31999 893.98 7.97999C858.602 122.93 763.298 185.25 671.604 213.94C579.91 242.63 483.162 248.33 396.955 298.49C289.233 360.999 208.513 488.489 160.573 630.039C125.917 732.259 104.401 847.019 43.7532 925.298C36.822 934.228 29.4576 942.588 21.66 949.998H0V0H896.29Z" fill="url(#paint12_linear)"/>
<path d="M896.292 0C895.57 2.66 894.848 5.31999 893.981 7.97999C858.603 122.93 763.3 185.25 671.606 213.94C579.912 242.63 483.164 248.33 396.957 298.49C289.235 360.999 208.515 488.489 160.574 630.039C125.918 732.259 104.403 847.019 43.755 925.298C36.8238 934.228 29.4594 942.588 21.6618 949.998H14.875C24.983 941.068 34.369 930.998 43.033 919.788C103.681 841.509 125.196 726.559 159.852 624.529C207.793 482.979 288.368 355.489 396.235 292.98C482.442 243.01 579.19 237.12 670.884 208.62C762.578 179.74 857.737 117.42 893.115 2.47C893.404 1.71 893.548 0.949998 893.837 0H896.292Z" fill="url(#paint13_linear)"/>
<path d="M485.761 34.5799C478.108 130.53 417.027 204.06 353.058 251.56C289.089 298.869 217.755 330.599 161.439 392.349C90.9719 469.489 51.5508 587.669 38.8436 706.989C30.0352 789.069 32.0568 876.469 4.1876 949.998H0V106.78L170.247 0H486.194C486.772 11.4 486.628 22.99 485.761 34.5799Z" fill="#323232"/>
<path opacity="0.5" d="M485.761 34.5799C478.108 130.53 417.027 204.06 353.058 251.56C289.089 298.869 217.755 330.599 161.439 392.349C90.9719 469.489 51.5508 587.669 38.8436 706.989C30.0352 789.069 32.0568 876.469 4.1876 949.998H0V106.78L170.247 0H486.194C486.772 11.4 486.628 22.99 485.761 34.5799Z" fill="url(#paint14_linear)"/>
<path d="M485.759 34.5799C478.106 130.53 417.025 204.06 353.056 251.56C289.086 298.869 217.753 330.599 161.437 392.349C90.9697 469.489 51.5486 587.669 38.8414 706.989C30.033 789.069 32.0546 876.469 4.1854 949.998H1.875C30.6106 876.089 28.589 787.929 37.3974 705.089C50.1046 585.579 89.6701 467.589 159.993 390.259C216.309 328.509 287.787 296.78 351.612 249.47C415.581 202.16 476.517 128.63 484.315 32.6799C485.181 21.66 485.326 10.83 484.893 0H486.192C486.77 11.4 486.625 22.99 485.759 34.5799Z" fill="url(#paint15_linear)"/>
<path d="M476.953 0C450.817 45.7899 412.84 82.4599 374.141 109.82C309.45 155.23 237.538 184.87 180.212 245.1C108.589 320.339 67.1466 437.189 52.4178 556.319C41.7322 642.199 42.8874 734.159 9.09781 809.019C6.35421 815.099 3.32182 820.989 0.14502 826.689V0H476.953Z" fill="#323232"/>
<path opacity="0.5" d="M476.953 0C450.817 45.7899 412.84 82.4599 374.141 109.82C309.45 155.23 237.538 184.87 180.212 245.1C108.589 320.339 67.1466 437.189 52.4178 556.319C41.7322 642.199 42.8874 734.159 9.09781 809.019C6.35421 815.099 3.32182 820.989 0.14502 826.689V0H476.953Z" fill="url(#paint16_linear)"/>
<path d="M476.953 0C450.817 45.7899 412.84 82.4599 374.141 109.82C309.45 155.23 237.538 184.87 180.212 245.1C108.589 320.339 67.1466 437.189 52.4178 556.319C41.7322 642.199 42.8874 734.159 9.09781 809.019C6.35421 815.099 3.32182 820.989 0.14502 826.689V822.319C2.88862 817.379 5.34341 812.249 7.79821 807.119C41.5878 732.449 40.4326 640.299 51.1182 554.419C65.847 435.289 107.29 318.439 178.912 243.2C236.239 182.97 308.15 153.33 372.841 107.92C411.107 80.9399 448.507 44.8399 474.499 0.19H476.953V0Z" fill="url(#paint17_linear)"/>
<path d="M348.726 0C322.589 45.7899 284.612 82.4599 245.913 109.82C181.222 155.23 109.311 184.87 51.984 245.1C32.49 265.62 15.162 289.18 0 315.209V0H348.726Z" fill="#323232"/>
<path opacity="0.5" d="M348.726 0C322.589 45.7899 284.612 82.4599 245.913 109.82C181.222 155.23 109.311 184.87 51.984 245.1C32.49 265.62 15.162 289.18 0 315.209V0H348.726Z" fill="url(#paint18_linear)"/>
<path d="M348.726 0C322.589 45.7899 284.612 82.4599 245.913 109.82C181.222 155.23 109.311 184.87 51.984 245.1C32.49 265.62 15.162 289.18 0 315.209V310.84C14.7288 285.76 31.6236 262.96 50.54 243.01C107.867 182.78 179.778 153.14 244.469 107.73C282.735 80.7499 320.135 44.6499 346.127 0H348.726V0Z" fill="url(#paint19_linear)"/>
</g>
<defs>
<linearGradient id="paint0_linear" x1="539.43" y1="523.117" x2="488.867" y2="1202" gradientUnits="userSpaceOnUse">
<stop stop-color="white" stop-opacity="0"/>
<stop offset="1" stop-color="#59595B"/>
</linearGradient>
<linearGradient id="paint1_linear" x1="647.629" y1="786.136" x2="361.71" y2="301.978" gradientUnits="userSpaceOnUse">
<stop stop-color="white" stop-opacity="0"/>
<stop offset="1" stop-color="#59595B"/>
</linearGradient>
<linearGradient id="paint2_linear" x1="574.973" y1="525.649" x2="360.839" y2="338.496" gradientUnits="userSpaceOnUse">
<stop stop-color="white" stop-opacity="0"/>
<stop offset="1" stop-color="#59595B"/>
</linearGradient>
<linearGradient id="paint3_linear" x1="559.639" y1="643.909" x2="397.252" y2="-229.485" gradientUnits="userSpaceOnUse">
<stop stop-color="white" stop-opacity="0"/>
<stop offset="1" stop-color="#59595B"/>
</linearGradient>
<linearGradient id="paint4_linear" x1="655.974" y1="671.306" x2="510.603" y2="399.944" gradientUnits="userSpaceOnUse">
<stop stop-color="#323232" stop-opacity="0"/>
<stop offset="1" stop-color="#323232"/>
</linearGradient>
<linearGradient id="paint5_linear" x1="724.941" y1="641.505" x2="747.267" y2="794.212" gradientUnits="userSpaceOnUse">
<stop stop-color="white" stop-opacity="0"/>
<stop offset="1" stop-color="#59595B"/>
</linearGradient>
<linearGradient id="paint6_linear" x1="774.894" y1="703.926" x2="805.441" y2="870.656" gradientUnits="userSpaceOnUse">
<stop stop-color="white" stop-opacity="0"/>
<stop offset="1" stop-color="#59595B"/>
</linearGradient>
<linearGradient id="paint7_linear" x1="683.105" y1="833.337" x2="691.543" y2="1002.21" gradientUnits="userSpaceOnUse">
<stop stop-color="white" stop-opacity="0"/>
<stop offset="1" stop-color="#59595B"/>
</linearGradient>
<linearGradient id="paint8_linear" x1="280.335" y1="783.454" x2="1083" y2="783.454" gradientUnits="userSpaceOnUse">
<stop stop-color="#323232" stop-opacity="0"/>
<stop offset="1" stop-color="#323232"/>
</linearGradient>
<linearGradient id="paint9_linear" x1="490.835" y1="421.668" x2="111.117" y2="190.799" gradientUnits="userSpaceOnUse">
<stop stop-color="white" stop-opacity="0"/>
<stop offset="1" stop-color="#59595B"/>
</linearGradient>
<linearGradient id="paint10_linear" x1="520.093" y1="365.968" x2="394.896" y2="-2.35384" gradientUnits="userSpaceOnUse">
<stop stop-color="white" stop-opacity="0"/>
<stop offset="1" stop-color="#59595B"/>
</linearGradient>
<linearGradient id="paint11_linear" x1="582.442" y1="569.275" x2="460.7" y2="349.532" gradientUnits="userSpaceOnUse">
<stop stop-opacity="0"/>
<stop offset="1" stop-color="#323232" stop-opacity="0.56"/>
</linearGradient>
<linearGradient id="paint12_linear" x1="433.996" y1="456.401" x2="74.1061" y2="182.885" gradientUnits="userSpaceOnUse">
<stop stop-color="white" stop-opacity="0"/>
<stop offset="1" stop-color="#59595B"/>
</linearGradient>
<linearGradient id="paint13_linear" x1="360.252" y1="274.065" x2="530.453" y2="481.384" gradientUnits="userSpaceOnUse">
<stop stop-color="#323232" stop-opacity="0"/>
<stop offset="1" stop-color="#323232"/>
</linearGradient>
<linearGradient id="paint14_linear" x1="199.084" y1="405.199" x2="51.5782" y2="270.013" gradientUnits="userSpaceOnUse">
<stop stop-color="white" stop-opacity="0"/>
<stop offset="1" stop-color="#59595B"/>
</linearGradient>
<linearGradient id="paint15_linear" x1="142.446" y1="366.56" x2="246.003" y2="430.413" gradientUnits="userSpaceOnUse">
<stop stop-color="#323232" stop-opacity="0"/>
<stop offset="1" stop-color="#323232"/>
</linearGradient>
<linearGradient id="paint16_linear" x1="180.865" y1="369.333" x2="-105.834" y2="242.748" gradientUnits="userSpaceOnUse">
<stop stop-color="white" stop-opacity="0"/>
<stop offset="1" stop-color="#59595B"/>
</linearGradient>
<linearGradient id="paint17_linear" x1="72.4946" y1="272.822" x2="259.938" y2="364.502" gradientUnits="userSpaceOnUse">
<stop stop-color="#59595B"/>
<stop offset="1" stop-color="#59595B"/>
</linearGradient>
<linearGradient id="paint18_linear" x1="123.562" y1="92.1966" x2="-36.9847" y2="-27.1472" gradientUnits="userSpaceOnUse">
<stop stop-color="#323232" stop-opacity="0"/>
<stop offset="1" stop-color="#323232"/>
</linearGradient>
<linearGradient id="paint19_linear" x1="161.768" y1="55.3342" x2="170.042" y2="94.1082" gradientUnits="userSpaceOnUse">
<stop stop-opacity="0"/>
<stop offset="1" stop-color="#323232"/>
</linearGradient>
</defs>
</svg>
